<?xml version="1.0" encoding="UTF-8"?>
<svg xmlns="http://www.w3.org/2000/svg" xmlns:xlink="http://www.w3.org/1999/xlink" width="467px" height="350px" viewBox="0 0 466 350" version="1.1">
<defs>
<clipPath id="clip1">
  <path d="M 58.308594 66.476562 L 407.265625 66.476562 L 407.265625 283.828125 L 58.308594 283.828125 Z M 58.308594 66.476562 "/>
</clipPath>
</defs>
<g id="surface1">
<rect x="0" y="0" width="466" height="350" style="fill:rgb(0%,0%,0%);fill-opacity:1;stroke:none;"/>
<g clip-path="url(#clip1)" clip-rule="nonzero">
<path style=" stroke:none;fill-rule:nonzero;fill:rgb(100%,100%,100%);fill-opacity:1;" d="M 226.148438 70.558594 L 261.765625 70.558594 L 232.484375 279.445312 L 182.074219 279.445312 L 159.738281 111.367188 L 136.492188 279.445312 L 86.988281 279.445312 L 58.308594 70.558594 L 95.4375 70.558594 L 114.757812 248.609375 L 139.8125 70.558594 L 180.566406 70.558594 L 205.015625 248.609375 Z M 353.535156 66.324219 C 364.199219 66.324219 373.597656 68.078125 381.730469 71.585938 C 389.898438 75.132812 397.808594 80.53125 405.457031 87.789062 L 387.042969 109.855469 C 381.808594 105.019531 376.71875 101.433594 371.765625 99.09375 C 366.855469 96.796875 361.484375 95.648438 355.648438 95.648438 C 343.574219 95.648438 334.113281 101.695312 327.273438 113.785156 C 320.429688 125.878906 317.007812 146.132812 317.007812 174.546875 C 317.007812 202.5625 320.429688 222.652344 327.273438 234.824219 C 334.113281 247.039062 343.773438 253.144531 356.25 253.144531 C 362.488281 253.144531 367.921875 251.875 372.550781 249.335938 C 377.179688 246.835938 382.613281 242.96875 388.851562 237.726562 L 407.265625 258.890625 C 400.828125 266.144531 393.078125 272.128906 384.023438 276.84375 C 374.96875 281.601562 364.804688 283.980469 353.535156 283.980469 C 329.988281 283.980469 311.273438 274.808594 297.386719 256.46875 C 283.5 238.132812 276.558594 210.824219 276.558594 174.546875 C 276.558594 150.566406 279.878906 130.511719 286.519531 114.390625 C 293.160156 98.269531 302.257812 86.238281 313.808594 78.296875 C 325.402344 70.316406 338.640625 66.324219 353.535156 66.324219 Z M 353.535156 66.324219 "/>
</g>
</g>
</svg>
